<?xml version="1.0"?>
<!DOCTYPE svg PUBLIC "-//W3C//DTD SVG 1.1//EN" "http://www.w3.org/Graphics/SVG/1.1/DTD/svg11.dtd">
<svg width="259.08000000000004mm" height="8.080000000000044mm" viewBox="0 0 259.08000000000004 8.080000000000044" xmlns="http://www.w3.org/2000/svg" version="1.1">
<g id="Pocket003" transform="translate(2.540000,2.540000) scale(1,-1)">
<path id="Pocket003_f0000"  d="M 254.0 0.0 L 0.0 0.0 L 0.0 -3.0 L 254.0 -3.0 L 254.0 0.0 Z " stroke="#191919" stroke-width="0.7 px" style="stroke-width:0.7;stroke-miterlimit:4;stroke-dasharray:none;stroke-linecap:square;fill:#727980;fill-opacity:1.0;fill-rule: evenodd"/>
<path id="Pocket003_f0001"  d="M 0.0 0.0 L 0.0 0.0 L 0.0 -3.0 L 0.0 -3.0 L 0.0 0.0 Z " stroke="#191919" stroke-width="0.7 px" style="stroke-width:0.7;stroke-miterlimit:4;stroke-dasharray:none;stroke-linecap:square;fill:#727980;fill-opacity:1.0;fill-rule: evenodd"/>
<path id="Pocket003_f0002"  d="M 254.0 0.0 L 254.0 0.0 L 254.0 -3.0 L 254.0 -3.0 L 254.0 5.929e-14 Z " stroke="#191919" stroke-width="0.7 px" style="stroke-width:0.7;stroke-miterlimit:4;stroke-dasharray:none;stroke-linecap:square;fill:#727980;fill-opacity:1.0;fill-rule: evenodd"/>
<path id="Pocket003_f0004"  d="M 254.0 -3.0 L 0.0 -3.0 L 0.0 -3.0 L 254.0 -3.0 L 254.0 -3.0 Z M 4.799999999999999 -2.999999999999984 M 4.799999999999999 -2.999999999999984 L 4.8 -2.9999999999999805 L 11.075 -2.999999999999981 M 11.075 -2.999999999999981 L 11.075000000000001 -2.9999999999999845 L 4.799999999999999 -2.999999999999984 Z M 4.799999999999999 -2.999999999999977 M 4.799999999999999 -2.999999999999977 L 4.799999999999998 -2.999999999999974 L 11.075 -2.999999999999974 M 11.075 -2.999999999999974 L 11.075000000000001 -2.999999999999977 L 4.799999999999999 -2.999999999999977 Z M 47.57500000000002 -2.999999999999983 M 47.57500000000002 -2.999999999999985 L 47.57500000000002 -2.999999999999985 Z M 4.799999999999998 -2.99999999999997 M 4.799999999999998 -2.99999999999997 L 4.799999999999997 -2.999999999999967 L 11.075000000000003 -2.999999999999967 M 11.075000000000003 -2.999999999999967 L 11.075000000000001 -2.99999999999997 L 4.799999999999998 -2.99999999999997 Z M 4.799999999999998 -2.999999999999964 M 4.799999999999998 -2.999999999999964 L 4.799999999999997 -2.999999999999961 L 11.075000000000003 -2.999999999999961 M 11.075000000000003 -2.999999999999961 L 11.075000000000001 -2.9999999999999645 L 4.799999999999998 -2.999999999999964 Z M 106.07500000000002 -2.999999999999983 M 106.07500000000002 -2.999999999999985 L 106.07500000000002 -2.999999999999985 Z M 19.375 -3.0 L 19.375 -3.0 L 197.375 -3.0 L 197.375 -3.0 L 19.375 -3.0 Z M 4.799999999999999 -2.999999999999957 M 4.799999999999999 -2.999999999999957 L 4.799999999999998 -2.999999999999954 L 11.075000000000003 -2.999999999999954 M 11.075000000000003 -2.999999999999954 L 11.075000000000001 -2.999999999999957 L 4.799999999999999 -2.999999999999957 Z M 4.799999999999999 -2.99999999999995 M 4.799999999999999 -2.99999999999995 L 4.799999999999998 -2.999999999999947 L 11.075 -2.999999999999947 M 11.075 -2.999999999999947 L 11.075000000000003 -2.99999999999995 L 4.799999999999999 -2.99999999999995 Z M 4.799999999999999 -2.999999999999944 M 4.799999999999999 -2.999999999999944 L 4.799999999999999 -2.999999999999941 L 11.075 -2.999999999999941 M 11.075 -2.999999999999941 L 11.075000000000001 -2.999999999999944 L 4.799999999999999 -2.999999999999944 Z M 4.799999999999999 -2.999999999999937 M 4.799999999999999 -2.999999999999937 L 4.799999999999999 -2.999999999999935 L 11.075000000000003 -2.999999999999935 M 11.075000000000003 -2.999999999999935 L 11.075000000000001 -2.999999999999937 L 4.799999999999999 -2.999999999999937 Z M 4.799999999999999 -2.99999999999993 M 4.799999999999999 -2.99999999999993 L 4.799999999999999 -2.999999999999928 L 11.075000000000003 -2.999999999999928 M 11.075000000000003 -2.999999999999928 L 11.075000000000001 -2.99999999999993 L 4.799999999999999 -2.99999999999993 Z M 47.57500000000002 -2.999999999999929 M 47.57500000000002 -2.999999999999985 L 47.57500000000002 -2.999999999999985 Z M 106.07500000000002 -2.999999999999929 M 106.07500000000002 -2.999999999999985 L 106.07500000000002 -2.999999999999985 Z M 164.57500000000002 -2.999999999999983 M 164.57500000000002 -2.999999999999985 L 164.57500000000002 -2.999999999999985 Z M 191.07500000000002 -2.999999999999983 M 191.07500000000002 -2.999999999999985 L 191.07500000000002 -2.999999999999985 Z M 242.925 -2.9999999999999845 M 242.925 -2.9999999999999845 L 242.925 -2.999999999999981 L 249.2 -2.999999999999981 M 249.2 -2.999999999999981 L 249.2 -2.9999999999999845 L 242.925 -2.9999999999999845 Z M 242.925 -2.999999999999977 M 242.925 -2.9999999999999774 L 242.925 -2.999999999999974 L 249.2 -2.999999999999974 M 249.2 -2.999999999999974 L 249.2 -2.9999999999999774 L 242.925 -2.999999999999977 Z M 242.925 -2.99999999999997 M 242.925 -2.99999999999997 L 242.925 -2.999999999999967 L 249.2 -2.999999999999967 M 249.2 -2.999999999999967 L 249.2 -2.99999999999997 L 242.925 -2.99999999999997 Z M 242.925 -2.9999999999999645 M 242.925 -2.9999999999999645 L 242.925 -2.999999999999961 L 249.2 -2.999999999999961 M 249.2 -2.999999999999961 L 249.2 -2.9999999999999645 L 242.925 -2.9999999999999645 Z M 164.57500000000002 -2.999999999999929 M 164.57500000000002 -2.999999999999985 L 164.57500000000002 -2.999999999999985 Z M 191.07500000000002 -2.999999999999929 M 191.07500000000002 -2.999999999999985 L 191.07500000000002 -2.999999999999985 Z M 215.5 -2.999999999999988 L 200.875 -3.0 L 200.875 -3.0 L 215.5 -2.999999999999938 L 215.5 -2.999999999999929 M 215.5 -2.999999999999929 L 223.5 -2.999999999999929 L 223.5 -2.999999999999938 L 238.125 -3.0 L 238.125 -3.0 L 223.5 -2.999999999999988 L 223.5 -2.999999999999983 M 223.5 -2.999999999999983 L 215.5 -2.999999999999983 L 215.5 -2.999999999999988 Z M 242.925 -2.999999999999957 M 242.925 -2.999999999999957 L 242.92499999999998 -2.999999999999954 L 249.20000000000002 -2.999999999999954 M 249.20000000000002 -2.999999999999954 L 249.20000000000005 -2.999999999999957 L 242.925 -2.999999999999957 Z M 242.9250000002686 -2.99999999999995 M 242.9250000002686 -2.99999999999995 L 242.92499999998438 -2.999999999999947 L 249.2000000000137 -2.999999999999947 M 249.2000000000137 -2.999999999999947 L 249.2000000002957 -2.99999999999995 L 242.9250000002686 -2.99999999999995 Z M 242.92500000026115 -2.999999999999944 M 242.92500000026115 -2.9999999999999436 L 242.9249999999906 -2.9999999999999405 L 249.20000000001102 -2.999999999999941 M 249.20000000001102 -2.999999999999941 L 249.20000000028477 -2.999999999999944 L 242.92500000026115 -2.999999999999944 Z M 242.92499999999998 -2.999999999999937 M 242.92499999999998 -2.999999999999937 L 242.92499999999998 -2.999999999999935 L 249.20000000000002 -2.999999999999935 M 249.20000000000002 -2.999999999999935 L 249.20000000000005 -2.999999999999937 L 242.92499999999998 -2.999999999999937 Z M 242.925 -2.99999999999993 M 242.925 -2.99999999999993 L 242.925 -2.999999999999928 L 249.2 -2.999999999999928 M 249.2 -2.999999999999928 L 249.2 -2.99999999999993 L 242.925 -2.99999999999993 Z " stroke="#191919" stroke-width="0.7 px" style="stroke-width:0.7;stroke-miterlimit:4;stroke-dasharray:none;stroke-linecap:square;fill:#727980;fill-opacity:1.0;fill-rule: evenodd"/>
<path id="Pocket003_f0005"  d="M 0.0 0.0 L 254.0 0.0 L 254.0 -3.0 L 0.0 -3.0 L 0.0 5.929e-14 Z " stroke="#191919" stroke-width="0.7 px" style="stroke-width:0.7;stroke-miterlimit:4;stroke-dasharray:none;stroke-linecap:square;fill:#727980;fill-opacity:1.0;fill-rule: evenodd"/>
<path id="Pocket003_f0006"  d="M 11.075 1.7e-14 L 4.8 1.7e-14 L 4.8 -2.999999999999981 L 11.075 -2.999999999999981 L 11.075 1.7e-14 Z " stroke="#191919" stroke-width="0.7 px" style="stroke-width:0.7;stroke-miterlimit:4;stroke-dasharray:none;stroke-linecap:square;fill:#727980;fill-opacity:1.0;fill-rule: evenodd"/>
<path id="Pocket003_f0007"  d="M 11.075 1.687538997430238e-14 L 11.075 -2.999999999999981 M 11.074999999999998 -2.999999999999985 L 11.075000000000003 -2.999999999999985 L 11.075000000000001 1.6e-14 M 11.075000000000001 1.4538e-14 L 11.075 1.7442e-14 Z " stroke="#191919" stroke-width="0.7 px" style="stroke-width:0.7;stroke-miterlimit:4;stroke-dasharray:none;stroke-linecap:square;fill:#727980;fill-opacity:1.0;fill-rule: evenodd"/>
<path id="Pocket003_f0008"  d="M 11.075000000000001 1.5987211554602254e-14 L 11.075000000000001 -2.999999999999984 L 4.799999999999999 -2.999999999999985 L 4.799999999999999 1.6e-14 L 11.075000000000003 1.551e-14 Z " stroke="#191919" stroke-width="0.7 px" style="stroke-width:0.7;stroke-miterlimit:4;stroke-dasharray:none;stroke-linecap:square;fill:#727980;fill-opacity:1.0;fill-rule: evenodd"/>
<path id="Pocket003_f0009"  d="M 4.799999999999999 1.5987211554602254e-14 L 4.799999999999999 -2.999999999999984 M 4.8 -2.999999999999985 L 4.799999999999999 -2.999999999999985 L 4.8 1.7e-14 M 4.799999999999999 1.7442e-14 L 4.799999999999999 1.4538e-14 Z " stroke="#191919" stroke-width="0.7 px" style="stroke-width:0.7;stroke-miterlimit:4;stroke-dasharray:none;stroke-linecap:square;fill:#727980;fill-opacity:1.0;fill-rule: evenodd"/>
<path id="Pocket003_f0010"  d="M 11.075 2e-14 L 4.799999999999999 2e-14 L 4.799999999999999 -2.999999999999974 L 11.075 -2.999999999999974 L 11.075 2e-14 Z " stroke="#191919" stroke-width="0.7 px" style="stroke-width:0.7;stroke-miterlimit:4;stroke-dasharray:none;stroke-linecap:square;fill:#727980;fill-opacity:1.0;fill-rule: evenodd"/>
<path id="Pocket003_f0011"  d="M 11.075 1.9984014443252818e-14 L 11.075 -2.999999999999974 M 11.074999999999998 -2.999999999999985 L 11.075000000000003 -2.999999999999985 L 11.075000000000001 1.9e-14 M 11.075000000000001 1.8088000000000002e-14 L 11.075 2.0992e-14 Z " stroke="#191919" stroke-width="0.7 px" style="stroke-width:0.7;stroke-miterlimit:4;stroke-dasharray:none;stroke-linecap:square;fill:#727980;fill-opacity:1.0;fill-rule: evenodd"/>
<path id="Pocket003_f0012"  d="M 11.075000000000001 1.9095836023552692e-14 L 11.075000000000001 -2.999999999999977 L 4.799999999999999 -2.999999999999985 L 4.799999999999999 1.9e-14 L 11.075000000000003 1.882e-14 Z " stroke="#191919" stroke-width="0.7 px" style="stroke-width:0.7;stroke-miterlimit:4;stroke-dasharray:none;stroke-linecap:square;fill:#727980;fill-opacity:1.0;fill-rule: evenodd"/>
<path id="Pocket003_f0013"  d="M 4.799999999999999 1.9095836023552692e-14 L 4.799999999999999 -2.999999999999977 M 4.8 -2.999999999999985 L 4.799999999999999 -2.999999999999985 L 4.799999999999999 2e-14 M 4.799999999999999 2.0992e-14 L 4.799999999999999 1.8088000000000002e-14 Z " stroke="#191919" stroke-width="0.7 px" style="stroke-width:0.7;stroke-miterlimit:4;stroke-dasharray:none;stroke-linecap:square;fill:#727980;fill-opacity:1.0;fill-rule: evenodd"/>
<path id="Pocket003_f0014"  d="M 46.675000000000004 0.0 M 46.675000000000004 0.0 L 46.675000000000004 0.0 L 46.675000000000004 -0.99999999999997 M 46.675000000000004 -0.9999999999999697 L 46.675000000000004 -0.9999999999999697 Z " stroke="#191919" stroke-width="0.7 px" style="stroke-width:0.7;stroke-miterlimit:4;stroke-dasharray:none;stroke-linecap:square;fill:#727980;fill-opacity:1.0;fill-rule: evenodd"/>
<path id="Pocket003_f0015"  d="M 11.075000000000003 2.4e-14 L 4.799999999999998 2.4e-14 L 4.799999999999998 -2.999999999999967 L 11.075000000000003 -2.999999999999967 L 11.075000000000003 2.4e-14 Z " stroke="#191919" stroke-width="0.7 px" style="stroke-width:0.7;stroke-miterlimit:4;stroke-dasharray:none;stroke-linecap:square;fill:#727980;fill-opacity:1.0;fill-rule: evenodd"/>
<path id="Pocket003_f0016"  d="M 11.075000000000003 2.398081733190338e-14 L 11.075000000000003 -2.999999999999967 M 11.075000000000001 -2.999999999999985 L 11.075000000000003 -2.999999999999985 L 11.075000000000001 2.2e-14 M 11.075000000000001 2.1638e-14 L 11.075000000000003 2.4542e-14 Z " stroke="#191919" stroke-width="0.7 px" style="stroke-width:0.7;stroke-miterlimit:4;stroke-dasharray:none;stroke-linecap:square;fill:#727980;fill-opacity:1.0;fill-rule: evenodd"/>
<path id="Pocket003_f0017"  d="M 11.075000000000001 2.220446049250313e-14 L 11.075000000000001 -2.99999999999997 L 4.799999999999998 -2.999999999999985 L 4.799999999999998 2.2e-14 L 11.075000000000003 2.236e-14 Z " stroke="#191919" stroke-width="0.7 px" style="stroke-width:0.7;stroke-miterlimit:4;stroke-dasharray:none;stroke-linecap:square;fill:#727980;fill-opacity:1.0;fill-rule: evenodd"/>
<path id="Pocket003_f0018"  d="M 4.799999999999998 2.220446049250313e-14 L 4.799999999999998 -2.99999999999997 M 4.799999999999999 -2.999999999999985 L 4.799999999999998 -2.999999999999985 L 4.799999999999998 2.4e-14 M 4.799999999999998 2.4542e-14 L 4.799999999999998 2.1638e-14 Z " stroke="#191919" stroke-width="0.7 px" style="stroke-width:0.7;stroke-miterlimit:4;stroke-dasharray:none;stroke-linecap:square;fill:#727980;fill-opacity:1.0;fill-rule: evenodd"/>
<path id="Pocket003_f0019"  d="M 11.075000000000003 2.7e-14 L 4.799999999999998 2.7e-14 L 4.799999999999998 -2.9999999999999614 L 11.075000000000003 -2.999999999999961 L 11.075000000000003 2.7e-14 Z " stroke="#191919" stroke-width="0.7 px" style="stroke-width:0.7;stroke-miterlimit:4;stroke-dasharray:none;stroke-linecap:square;fill:#727980;fill-opacity:1.0;fill-rule: evenodd"/>
<path id="Pocket003_f0020"  d="M 11.075000000000003 2.6645352591003757e-14 L 11.075000000000003 -2.9999999999999614 M 11.075000000000001 -2.999999999999985 L 11.075000000000003 -2.999999999999985 L 11.075000000000001 2.5e-14 M 11.075000000000001 2.4308e-14 L 11.075000000000003 2.7211999999999998e-14 Z " stroke="#191919" stroke-width="0.7 px" style="stroke-width:0.7;stroke-miterlimit:4;stroke-dasharray:none;stroke-linecap:square;fill:#727980;fill-opacity:1.0;fill-rule: evenodd"/>
<path id="Pocket003_f0021"  d="M 11.075000000000001 2.531308496145357e-14 L 11.075000000000001 -2.9999999999999645 L 4.799999999999998 -2.999999999999985 L 4.799999999999998 2.5e-14 L 11.075000000000003 2.533e-14 Z " stroke="#191919" stroke-width="0.7 px" style="stroke-width:0.7;stroke-miterlimit:4;stroke-dasharray:none;stroke-linecap:square;fill:#727980;fill-opacity:1.0;fill-rule: evenodd"/>
<path id="Pocket003_f0022"  d="M 4.799999999999998 2.531308496145357e-14 L 4.799999999999998 -2.9999999999999645 M 4.799999999999999 -2.999999999999985 L 4.799999999999998 -2.999999999999985 L 4.799999999999998 2.7e-14 M 4.799999999999998 2.7211999999999998e-14 L 4.799999999999998 2.4308e-14 Z " stroke="#191919" stroke-width="0.7 px" style="stroke-width:0.7;stroke-miterlimit:4;stroke-dasharray:none;stroke-linecap:square;fill:#727980;fill-opacity:1.0;fill-rule: evenodd"/>
<path id="Pocket003_f0023"  d="M 105.175 0.0 M 105.175 0.0 L 105.175 0.0 L 105.175 -0.99999999999997 M 105.175 -0.9999999999999697 L 105.175 -0.9999999999999697 Z " stroke="#191919" stroke-width="0.7 px" style="stroke-width:0.7;stroke-miterlimit:4;stroke-dasharray:none;stroke-linecap:square;fill:#727980;fill-opacity:1.0;fill-rule: evenodd"/>
<path id="Pocket003_f0024"  d="M 197.375 0.0 L 197.375 -3.0 L 19.375 -3.0 L 19.375 5.462e-14 L 197.375 0.0 Z " stroke="#191919" stroke-width="0.7 px" style="stroke-width:0.7;stroke-miterlimit:4;stroke-dasharray:none;stroke-linecap:square;fill:#727980;fill-opacity:1.0;fill-rule: evenodd"/>
<path id="Pocket003_f0025"  d="M 197.375 0.0 L 197.375 0.0 L 197.375 -3.0 L 197.375 -3.0 L 197.375 4.44e-15 Z " stroke="#191919" stroke-width="0.7 px" style="stroke-width:0.7;stroke-miterlimit:4;stroke-dasharray:none;stroke-linecap:square;fill:#727980;fill-opacity:1.0;fill-rule: evenodd"/>
<path id="Pocket003_f0026"  d="M 19.375 0.0 L 19.375 -3.0 L 19.375 -3.0 L 19.375 4.44e-15 L 19.375 0.0 Z " stroke="#191919" stroke-width="0.7 px" style="stroke-width:0.7;stroke-miterlimit:4;stroke-dasharray:none;stroke-linecap:square;fill:#727980;fill-opacity:1.0;fill-rule: evenodd"/>
<path id="Pocket003_f0027"  d="M 19.375 0.0 L 197.375 0.0 L 197.375 -3.0 L 19.375 -3.0 L 19.375 4.44e-15 Z " stroke="#191919" stroke-width="0.7 px" style="stroke-width:0.7;stroke-miterlimit:4;stroke-dasharray:none;stroke-linecap:square;fill:#727980;fill-opacity:1.0;fill-rule: evenodd"/>
<path id="Pocket003_f0028"  d="M 11.075000000000003 3e-14 L 4.799999999999999 3e-14 L 4.799999999999999 -2.9999999999999543 L 11.075000000000003 -2.999999999999954 L 11.075000000000003 3e-14 Z " stroke="#191919" stroke-width="0.7 px" style="stroke-width:0.7;stroke-miterlimit:4;stroke-dasharray:none;stroke-linecap:square;fill:#727980;fill-opacity:1.0;fill-rule: evenodd"/>
<path id="Pocket003_f0029"  d="M 11.075000000000003 2.9753977059954195e-14 L 11.075000000000003 -2.9999999999999543 M 11.075000000000001 -2.999999999999985 L 11.075000000000003 -2.999999999999985 L 11.075000000000001 2.9e-14 M 11.075000000000001 2.7857999999999998e-14 L 11.075000000000003 3.0762e-14 Z " stroke="#191919" stroke-width="0.7 px" style="stroke-width:0.7;stroke-miterlimit:4;stroke-dasharray:none;stroke-linecap:square;fill:#727980;fill-opacity:1.0;fill-rule: evenodd"/>
<path id="Pocket003_f0030"  d="M 11.075000000000001 2.842170943040401e-14 L 11.075000000000001 -2.9999999999999574 L 4.799999999999999 -2.999999999999985 L 4.799999999999999 2.9e-14 L 11.075000000000003 2.886e-14 Z " stroke="#191919" stroke-width="0.7 px" style="stroke-width:0.7;stroke-miterlimit:4;stroke-dasharray:none;stroke-linecap:square;fill:#727980;fill-opacity:1.0;fill-rule: evenodd"/>
<path id="Pocket003_f0031"  d="M 4.799999999999999 2.842170943040401e-14 L 4.799999999999999 -2.9999999999999574 M 4.8 -2.999999999999985 L 4.799999999999999 -2.999999999999985 L 4.799999999999999 3e-14 M 4.799999999999999 3.0762e-14 L 4.799999999999999 2.7857999999999998e-14 Z " stroke="#191919" stroke-width="0.7 px" style="stroke-width:0.7;stroke-miterlimit:4;stroke-dasharray:none;stroke-linecap:square;fill:#727980;fill-opacity:1.0;fill-rule: evenodd"/>
<path id="Pocket003_f0032"  d="M 11.075 3.4e-14 L 4.799999999999999 3.4e-14 L 4.799999999999999 -2.999999999999947 L 11.075 -2.999999999999947 L 11.075 3.4e-14 Z " stroke="#191919" stroke-width="0.7 px" style="stroke-width:0.7;stroke-miterlimit:4;stroke-dasharray:none;stroke-linecap:square;fill:#727980;fill-opacity:1.0;fill-rule: evenodd"/>
<path id="Pocket003_f0033"  d="M 11.075 3.375077994860476e-14 L 11.075 -2.999999999999947 M 11.074999999999998 -2.999999999999985 L 11.075000000000003 -2.999999999999985 L 11.075000000000001 3.2e-14 M 11.075000000000001 3.1407999999999996e-14 L 11.075 3.4312e-14 Z " stroke="#191919" stroke-width="0.7 px" style="stroke-width:0.7;stroke-miterlimit:4;stroke-dasharray:none;stroke-linecap:square;fill:#727980;fill-opacity:1.0;fill-rule: evenodd"/>
<path id="Pocket003_f0034"  d="M 11.075000000000001 3.2862601528904634e-14 L 11.075000000000001 -2.9999999999999503 L 4.799999999999999 -2.999999999999985 L 4.799999999999999 3.2e-14 L 11.075000000000003 3.24e-14 Z " stroke="#191919" stroke-width="0.7 px" style="stroke-width:0.7;stroke-miterlimit:4;stroke-dasharray:none;stroke-linecap:square;fill:#727980;fill-opacity:1.0;fill-rule: evenodd"/>
<path id="Pocket003_f0035"  d="M 4.799999999999999 3.2862601528904634e-14 L 4.799999999999999 -2.9999999999999503 M 4.8 -2.999999999999985 L 4.799999999999999 -2.999999999999985 L 4.799999999999999 3.4e-14 M 4.799999999999999 3.4312e-14 L 4.799999999999999 3.1407999999999996e-14 Z " stroke="#191919" stroke-width="0.7 px" style="stroke-width:0.7;stroke-miterlimit:4;stroke-dasharray:none;stroke-linecap:square;fill:#727980;fill-opacity:1.0;fill-rule: evenodd"/>
<path id="Pocket003_f0036"  d="M 11.075 3.6e-14 L 4.799999999999999 3.6e-14 L 4.799999999999999 -2.9999999999999414 L 11.075 -2.999999999999941 L 11.075 3.6e-14 Z " stroke="#191919" stroke-width="0.7 px" style="stroke-width:0.7;stroke-miterlimit:4;stroke-dasharray:none;stroke-linecap:square;fill:#727980;fill-opacity:1.0;fill-rule: evenodd"/>
<path id="Pocket003_f0037"  d="M 11.075 3.6415315207705135e-14 L 11.075 -2.9999999999999414 M 11.074999999999998 -2.999999999999985 L 11.075000000000003 -2.999999999999985 L 11.075000000000001 3.5e-14 M 11.075000000000001 3.4517999999999995e-14 L 11.075 3.7422e-14 Z " stroke="#191919" stroke-width="0.7 px" style="stroke-width:0.7;stroke-miterlimit:4;stroke-dasharray:none;stroke-linecap:square;fill:#727980;fill-opacity:1.0;fill-rule: evenodd"/>
<path id="Pocket003_f0038"  d="M 11.075000000000001 3.552713678800501e-14 L 11.075000000000001 -2.9999999999999445 L 4.799999999999999 -2.999999999999985 L 4.799999999999999 3.5e-14 L 11.075000000000003 3.515e-14 Z " stroke="#191919" stroke-width="0.7 px" style="stroke-width:0.7;stroke-miterlimit:4;stroke-dasharray:none;stroke-linecap:square;fill:#727980;fill-opacity:1.0;fill-rule: evenodd"/>
<path id="Pocket003_f0039"  d="M 4.799999999999999 3.552713678800501e-14 L 4.799999999999999 -2.9999999999999445 M 4.8 -2.999999999999985 L 4.799999999999999 -2.999999999999985 L 4.799999999999999 3.6e-14 M 4.799999999999999 3.7422e-14 L 4.799999999999999 3.4517999999999995e-14 Z " stroke="#191919" stroke-width="0.7 px" style="stroke-width:0.7;stroke-miterlimit:4;stroke-dasharray:none;stroke-linecap:square;fill:#727980;fill-opacity:1.0;fill-rule: evenodd"/>
<path id="Pocket003_f0040"  d="M 11.075000000000003 4e-14 L 4.799999999999999 4e-14 L 4.799999999999999 -2.9999999999999347 L 11.075000000000003 -2.999999999999935 L 11.075000000000003 4e-14 Z " stroke="#191919" stroke-width="0.7 px" style="stroke-width:0.7;stroke-miterlimit:4;stroke-dasharray:none;stroke-linecap:square;fill:#727980;fill-opacity:1.0;fill-rule: evenodd"/>
<path id="Pocket003_f0041"  d="M 11.075000000000003 4.04121180963557e-14 L 11.075000000000003 -2.9999999999999347 M 11.075000000000001 -2.999999999999985 L 11.075000000000003 -2.999999999999985 L 11.075000000000001 3.9e-14 M 11.075000000000001 3.8067999999999996e-14 L 11.075000000000003 4.0972e-14 Z " stroke="#191919" stroke-width="0.7 px" style="stroke-width:0.7;stroke-miterlimit:4;stroke-dasharray:none;stroke-linecap:square;fill:#727980;fill-opacity:1.0;fill-rule: evenodd"/>
<path id="Pocket003_f0042"  d="M 11.075000000000001 3.863576125695545e-14 L 11.075000000000001 -2.9999999999999374 L 4.799999999999999 -2.999999999999985 L 4.799999999999999 3.9e-14 L 11.075000000000003 3.868e-14 Z " stroke="#191919" stroke-width="0.7 px" style="stroke-width:0.7;stroke-miterlimit:4;stroke-dasharray:none;stroke-linecap:square;fill:#727980;fill-opacity:1.0;fill-rule: evenodd"/>
<path id="Pocket003_f0043"  d="M 4.799999999999999 3.863576125695545e-14 L 4.799999999999999 -2.9999999999999374 M 4.8 -2.999999999999985 L 4.799999999999999 -2.999999999999985 L 4.799999999999999 4e-14 M 4.799999999999999 4.0972e-14 L 4.799999999999999 3.8067999999999996e-14 Z " stroke="#191919" stroke-width="0.7 px" style="stroke-width:0.7;stroke-miterlimit:4;stroke-dasharray:none;stroke-linecap:square;fill:#727980;fill-opacity:1.0;fill-rule: evenodd"/>
<path id="Pocket003_f0044"  d="M 11.075000000000003 4.4e-14 L 4.799999999999999 4.4e-14 L 4.799999999999999 -2.9999999999999276 L 11.075000000000003 -2.999999999999928 L 11.075000000000003 4.4e-14 Z " stroke="#191919" stroke-width="0.7 px" style="stroke-width:0.7;stroke-miterlimit:4;stroke-dasharray:none;stroke-linecap:square;fill:#727980;fill-opacity:1.0;fill-rule: evenodd"/>
<path id="Pocket003_f0045"  d="M 11.075000000000003 4.3520742565306136e-14 L 11.075000000000003 -2.9999999999999276 M 11.075000000000001 -2.999999999999985 L 11.075000000000003 -2.999999999999985 L 11.075000000000001 4.2e-14 M 11.075000000000001 4.1627999999999996e-14 L 11.075000000000003 4.4532e-14 Z " stroke="#191919" stroke-width="0.7 px" style="stroke-width:0.7;stroke-miterlimit:4;stroke-dasharray:none;stroke-linecap:square;fill:#727980;fill-opacity:1.0;fill-rule: evenodd"/>
<path id="Pocket003_f0046"  d="M 11.075000000000001 4.1744385725905886e-14 L 11.075000000000001 -2.9999999999999303 L 4.799999999999999 -2.999999999999985 L 4.799999999999999 4.2e-14 L 11.075000000000003 4.222e-14 Z " stroke="#191919" stroke-width="0.7 px" style="stroke-width:0.7;stroke-miterlimit:4;stroke-dasharray:none;stroke-linecap:square;fill:#727980;fill-opacity:1.0;fill-rule: evenodd"/>
<path id="Pocket003_f0047"  d="M 4.799999999999999 4.1744385725905886e-14 L 4.799999999999999 -2.9999999999999303 M 4.8 -2.999999999999985 L 4.799999999999999 -2.999999999999985 L 4.799999999999999 4.4e-14 M 4.799999999999999 4.4532e-14 L 4.799999999999999 4.1627999999999996e-14 Z " stroke="#191919" stroke-width="0.7 px" style="stroke-width:0.7;stroke-miterlimit:4;stroke-dasharray:none;stroke-linecap:square;fill:#727980;fill-opacity:1.0;fill-rule: evenodd"/>
<path id="Pocket003_f0048"  d="M 46.675000000000004 0.0 M 46.675000000000004 0.0 L 46.675000000000004 0.0 L 46.675000000000004 -0.999999999999942 M 46.675000000000004 -0.9999999999999424 L 46.675000000000004 -0.9999999999999424 Z " stroke="#191919" stroke-width="0.7 px" style="stroke-width:0.7;stroke-miterlimit:4;stroke-dasharray:none;stroke-linecap:square;fill:#727980;fill-opacity:1.0;fill-rule: evenodd"/>
<path id="Pocket003_f0049"  d="M 105.175 0.0 M 105.175 0.0 L 105.175 0.0 L 105.175 -0.999999999999942 M 105.175 -0.9999999999999424 L 105.175 -0.9999999999999424 Z " stroke="#191919" stroke-width="0.7 px" style="stroke-width:0.7;stroke-miterlimit:4;stroke-dasharray:none;stroke-linecap:square;fill:#727980;fill-opacity:1.0;fill-rule: evenodd"/>
<path id="Pocket003_f0050"  d="M 163.675 0.0 M 163.675 0.0 L 163.675 0.0 L 163.675 -0.99999999999997 M 163.675 -0.9999999999999697 L 163.675 -0.9999999999999697 Z " stroke="#191919" stroke-width="0.7 px" style="stroke-width:0.7;stroke-miterlimit:4;stroke-dasharray:none;stroke-linecap:square;fill:#727980;fill-opacity:1.0;fill-rule: evenodd"/>
<path id="Pocket003_f0051"  d="M 190.175 0.0 M 190.175 0.0 L 190.175 0.0 L 190.175 -0.99999999999997 M 190.175 -0.9999999999999697 L 190.175 -0.9999999999999697 Z " stroke="#191919" stroke-width="0.7 px" style="stroke-width:0.7;stroke-miterlimit:4;stroke-dasharray:none;stroke-linecap:square;fill:#727980;fill-opacity:1.0;fill-rule: evenodd"/>
<path id="Pocket003_f0052"  d="M 222.0 -0.999999999999983 M 222.0 -0.9999999999999849 L 222.0 -0.9999999999999849 L 222.0 1.6e-14 M 222.0 1.599e-14 L 222.0 1.599e-14 Z " stroke="#191919" stroke-width="0.7 px" style="stroke-width:0.7;stroke-miterlimit:4;stroke-dasharray:none;stroke-linecap:square;fill:#727980;fill-opacity:1.0;fill-rule: evenodd"/>
<path id="Pocket003_f0053"  d="M 249.2 1.7e-14 L 242.925 1.7e-14 L 242.925 -2.999999999999981 L 249.2 -2.999999999999981 L 249.2 1.7e-14 Z " stroke="#191919" stroke-width="0.7 px" style="stroke-width:0.7;stroke-miterlimit:4;stroke-dasharray:none;stroke-linecap:square;fill:#727980;fill-opacity:1.0;fill-rule: evenodd"/>
<path id="Pocket003_f0054"  d="M 249.2 1.687538997430238e-14 L 249.2 -2.999999999999981 M 249.2 -2.999999999999985 L 249.2 -2.999999999999985 L 249.2 1.6e-14 M 249.2 1.4538e-14 L 249.2 1.7442e-14 Z " stroke="#191919" stroke-width="0.7 px" style="stroke-width:0.7;stroke-miterlimit:4;stroke-dasharray:none;stroke-linecap:square;fill:#727980;fill-opacity:1.0;fill-rule: evenodd"/>
<path id="Pocket003_f0055"  d="M 249.2 1.5987211554602254e-14 L 249.2 -2.999999999999984 L 242.925 -2.999999999999985 L 242.925 1.6e-14 L 249.2 1.551e-14 Z " stroke="#191919" stroke-width="0.7 px" style="stroke-width:0.7;stroke-miterlimit:4;stroke-dasharray:none;stroke-linecap:square;fill:#727980;fill-opacity:1.0;fill-rule: evenodd"/>
<path id="Pocket003_f0056"  d="M 242.925 1.5987211554602254e-14 L 242.925 -2.999999999999984 M 242.925 -2.999999999999985 L 242.925 -2.999999999999985 L 242.925 1.7e-14 M 242.925 1.7442e-14 L 242.925 1.4538e-14 Z " stroke="#191919" stroke-width="0.7 px" style="stroke-width:0.7;stroke-miterlimit:4;stroke-dasharray:none;stroke-linecap:square;fill:#727980;fill-opacity:1.0;fill-rule: evenodd"/>
<path id="Pocket003_f0057"  d="M 249.2 2e-14 L 242.925 2e-14 L 242.925 -2.999999999999974 L 249.2 -2.999999999999974 L 249.2 2e-14 Z " stroke="#191919" stroke-width="0.7 px" style="stroke-width:0.7;stroke-miterlimit:4;stroke-dasharray:none;stroke-linecap:square;fill:#727980;fill-opacity:1.0;fill-rule: evenodd"/>
<path id="Pocket003_f0058"  d="M 249.2 1.9984014443252818e-14 L 249.2 -2.999999999999974 M 249.2 -2.999999999999985 L 249.2 -2.999999999999985 L 249.2 1.9e-14 M 249.2 1.8088000000000002e-14 L 249.2 2.0992e-14 Z " stroke="#191919" stroke-width="0.7 px" style="stroke-width:0.7;stroke-miterlimit:4;stroke-dasharray:none;stroke-linecap:square;fill:#727980;fill-opacity:1.0;fill-rule: evenodd"/>
<path id="Pocket003_f0059"  d="M 249.2 1.9095836023552692e-14 L 249.2 -2.999999999999977 L 242.925 -2.999999999999985 L 242.925 1.9e-14 L 249.2 1.882e-14 Z " stroke="#191919" stroke-width="0.7 px" style="stroke-width:0.7;stroke-miterlimit:4;stroke-dasharray:none;stroke-linecap:square;fill:#727980;fill-opacity:1.0;fill-rule: evenodd"/>
<path id="Pocket003_f0060"  d="M 242.925 1.9095836023552692e-14 L 242.925 -2.999999999999977 M 242.92500000000004 -2.999999999999985 L 242.925 -2.999999999999985 L 242.925 2e-14 M 242.925 2.0992e-14 L 242.925 1.8088000000000002e-14 Z " stroke="#191919" stroke-width="0.7 px" style="stroke-width:0.7;stroke-miterlimit:4;stroke-dasharray:none;stroke-linecap:square;fill:#727980;fill-opacity:1.0;fill-rule: evenodd"/>
<path id="Pocket003_f0061"  d="M 238.125 -3.0 L 223.5 -3.0 L 223.5 -1.9999999999999813 L 215.5 -1.999999999999981 L 215.5 -2.999999999999988 L 200.875 -3.0 L 200.875 4.44e-15 L 238.125 0.0 L 238.125 -3.0 Z " stroke="#191919" stroke-width="0.7 px" style="stroke-width:0.7;stroke-miterlimit:4;stroke-dasharray:none;stroke-linecap:square;fill:#727980;fill-opacity:1.0;fill-rule: evenodd"/>
<path id="Pocket003_f0062"  d="M 200.875 0.0 L 200.875 0.0 L 200.875 -3.0 L 200.875 -3.0 L 200.875 5.462e-14 Z " stroke="#191919" stroke-width="0.7 px" style="stroke-width:0.7;stroke-miterlimit:4;stroke-dasharray:none;stroke-linecap:square;fill:#727980;fill-opacity:1.0;fill-rule: evenodd"/>
<path id="Pocket003_f0063"  d="M 238.125 0.0 L 238.125 -3.0 L 238.125 -3.0 L 238.125 5.462e-14 L 238.125 0.0 Z " stroke="#191919" stroke-width="0.7 px" style="stroke-width:0.7;stroke-miterlimit:4;stroke-dasharray:none;stroke-linecap:square;fill:#727980;fill-opacity:1.0;fill-rule: evenodd"/>
<path id="Pocket003_f0064"  d="M 215.5 -2.9999999999999307 L 215.5 -1.9999999999999312 L 223.5 -1.999999999999944 L 223.5 -2.999999999999938 L 238.125 -3.0 L 238.125 5.462e-14 L 200.875 0.0 L 200.875 -3.0 L 215.5 -2.999999999999938 Z " stroke="#191919" stroke-width="0.7 px" style="stroke-width:0.7;stroke-miterlimit:4;stroke-dasharray:none;stroke-linecap:square;fill:#727980;fill-opacity:1.0;fill-rule: evenodd"/>
<path id="Pocket003_f0065"  d="M 249.2 2.4e-14 L 242.925 2.4e-14 L 242.925 -2.999999999999967 L 249.2 -2.999999999999967 L 249.2 2.4e-14 Z " stroke="#191919" stroke-width="0.7 px" style="stroke-width:0.7;stroke-miterlimit:4;stroke-dasharray:none;stroke-linecap:square;fill:#727980;fill-opacity:1.0;fill-rule: evenodd"/>
<path id="Pocket003_f0066"  d="M 249.2 2.398081733190338e-14 L 249.2 -2.999999999999967 M 249.2 -2.999999999999985 L 249.2 -2.999999999999985 L 249.2 2.3e-14 M 249.2 2.1638e-14 L 249.2 2.4542e-14 Z " stroke="#191919" stroke-width="0.7 px" style="stroke-width:0.7;stroke-miterlimit:4;stroke-dasharray:none;stroke-linecap:square;fill:#727980;fill-opacity:1.0;fill-rule: evenodd"/>
<path id="Pocket003_f0067"  d="M 249.2 2.220446049250313e-14 L 249.2 -2.99999999999997 L 242.925 -2.999999999999985 L 242.925 2.3e-14 L 249.2 2.236e-14 Z " stroke="#191919" stroke-width="0.7 px" style="stroke-width:0.7;stroke-miterlimit:4;stroke-dasharray:none;stroke-linecap:square;fill:#727980;fill-opacity:1.0;fill-rule: evenodd"/>
<path id="Pocket003_f0068"  d="M 242.925 2.220446049250313e-14 L 242.925 -2.99999999999997 M 242.925 -2.999999999999985 L 242.925 -2.999999999999985 L 242.925 2.4e-14 M 242.925 2.4542e-14 L 242.925 2.1638e-14 Z " stroke="#191919" stroke-width="0.7 px" style="stroke-width:0.7;stroke-miterlimit:4;stroke-dasharray:none;stroke-linecap:square;fill:#727980;fill-opacity:1.0;fill-rule: evenodd"/>
<path id="Pocket003_f0069"  d="M 249.2 2.7e-14 L 242.925 2.7e-14 L 242.925 -2.9999999999999614 L 249.2 -2.999999999999961 L 249.2 2.7e-14 Z " stroke="#191919" stroke-width="0.7 px" style="stroke-width:0.7;stroke-miterlimit:4;stroke-dasharray:none;stroke-linecap:square;fill:#727980;fill-opacity:1.0;fill-rule: evenodd"/>
<path id="Pocket003_f0070"  d="M 249.2 2.6645352591003757e-14 L 249.2 -2.9999999999999614 M 249.2 -2.999999999999985 L 249.2 -2.999999999999985 L 249.2 2.5e-14 M 249.2 2.4308e-14 L 249.2 2.7211999999999998e-14 Z " stroke="#191919" stroke-width="0.7 px" style="stroke-width:0.7;stroke-miterlimit:4;stroke-dasharray:none;stroke-linecap:square;fill:#727980;fill-opacity:1.0;fill-rule: evenodd"/>
<path id="Pocket003_f0071"  d="M 249.2 2.4868995751603507e-14 L 249.2 -2.999999999999964 L 242.925 -2.999999999999985 L 242.925 2.5e-14 L 249.2 2.533e-14 Z " stroke="#191919" stroke-width="0.7 px" style="stroke-width:0.7;stroke-miterlimit:4;stroke-dasharray:none;stroke-linecap:square;fill:#727980;fill-opacity:1.0;fill-rule: evenodd"/>
<path id="Pocket003_f0072"  d="M 242.925 2.4868995751603507e-14 L 242.925 -2.999999999999964 M 242.925 -2.999999999999985 L 242.925 -2.999999999999985 L 242.925 2.7e-14 M 242.925 2.7211999999999998e-14 L 242.925 2.4308e-14 Z " stroke="#191919" stroke-width="0.7 px" style="stroke-width:0.7;stroke-miterlimit:4;stroke-dasharray:none;stroke-linecap:square;fill:#727980;fill-opacity:1.0;fill-rule: evenodd"/>
<path id="Pocket003_f0073"  d="M 163.675 0.0 M 163.675 0.0 L 163.675 0.0 L 163.675 -0.999999999999942 M 163.675 -0.9999999999999424 L 163.675 -0.9999999999999424 Z " stroke="#191919" stroke-width="0.7 px" style="stroke-width:0.7;stroke-miterlimit:4;stroke-dasharray:none;stroke-linecap:square;fill:#727980;fill-opacity:1.0;fill-rule: evenodd"/>
<path id="Pocket003_f0074"  d="M 190.175 0.0 M 190.175 0.0 L 190.175 0.0 L 190.175 -0.999999999999942 M 190.175 -0.9999999999999424 L 190.175 -0.9999999999999424 Z " stroke="#191919" stroke-width="0.7 px" style="stroke-width:0.7;stroke-miterlimit:4;stroke-dasharray:none;stroke-linecap:square;fill:#727980;fill-opacity:1.0;fill-rule: evenodd"/>
<path id="Pocket003_f0075"  d="M 249.20000000000002 3e-14 L 242.92499999999998 3e-14 L 242.92499999999998 -2.9999999999999543 L 249.20000000000002 -2.999999999999954 L 249.20000000000002 3e-14 Z " stroke="#191919" stroke-width="0.7 px" style="stroke-width:0.7;stroke-miterlimit:4;stroke-dasharray:none;stroke-linecap:square;fill:#727980;fill-opacity:1.0;fill-rule: evenodd"/>
<path id="Pocket003_f0076"  d="M 249.20000000000002 2.9753977059954195e-14 L 249.20000000000002 -2.9999999999999543 M 249.20000000000002 -2.999999999999985 L 249.20000000000005 -2.999999999999985 L 249.20000000000005 2.9e-14 M 249.20000000000005 2.7858000000000004e-14 L 249.20000000000002 3.0761999999999987e-14 Z " stroke="#191919" stroke-width="0.7 px" style="stroke-width:0.7;stroke-miterlimit:4;stroke-dasharray:none;stroke-linecap:square;fill:#727980;fill-opacity:1.0;fill-rule: evenodd"/>
<path id="Pocket003_f0077"  d="M 249.20000000000005 2.842170943040401e-14 L 249.20000000000005 -2.9999999999999574 L 242.925 -2.999999999999985 L 242.925 2.9e-14 L 249.20000000000005 2.886e-14 Z " stroke="#191919" stroke-width="0.7 px" style="stroke-width:0.7;stroke-miterlimit:4;stroke-dasharray:none;stroke-linecap:square;fill:#727980;fill-opacity:1.0;fill-rule: evenodd"/>
<path id="Pocket003_f0078"  d="M 242.925 2.842170943040401e-14 L 242.925 -2.9999999999999574 M 242.925 -2.999999999999985 L 242.92499999999998 -2.999999999999985 L 242.92499999999998 3e-14 M 242.92499999999998 3.0761999999999987e-14 L 242.925 2.7858000000000004e-14 Z " stroke="#191919" stroke-width="0.7 px" style="stroke-width:0.7;stroke-miterlimit:4;stroke-dasharray:none;stroke-linecap:square;fill:#727980;fill-opacity:1.0;fill-rule: evenodd"/>
<path id="Pocket003_f0079"  d="M 249.2000000000137 3.4e-14 L 242.92499999998438 3.4e-14 L 242.92499999998438 -2.999999999999947 L 249.2000000000137 -2.999999999999947 L 249.2000000000137 3.4e-14 Z " stroke="#191919" stroke-width="0.7 px" style="stroke-width:0.7;stroke-miterlimit:4;stroke-dasharray:none;stroke-linecap:square;fill:#727980;fill-opacity:1.0;fill-rule: evenodd"/>
<path id="Pocket003_f0080"  d="M 249.2000000000137 3.375077994860476e-14 L 249.2000000000137 -2.999999999999947 M 249.2000000000137 -2.999999999999985 L 249.2000000002957 -2.999999999999985 L 249.2000000002957 3.2e-14 M 249.2000000002957 3.140800000000664e-14 L 249.2000000000137 3.4311999999993355e-14 Z " stroke="#191919" stroke-width="0.7 px" style="stroke-width:0.7;stroke-miterlimit:4;stroke-dasharray:none;stroke-linecap:square;fill:#727980;fill-opacity:1.0;fill-rule: evenodd"/>
<path id="Pocket003_f0081"  d="M 249.2000000002957 3.2862601528904634e-14 L 249.2000000002957 -2.9999999999999503 L 242.9250000002686 -2.999999999999985 L 242.9250000002686 3.2e-14 L 249.2000000002957 3.24e-14 Z " stroke="#191919" stroke-width="0.7 px" style="stroke-width:0.7;stroke-miterlimit:4;stroke-dasharray:none;stroke-linecap:square;fill:#727980;fill-opacity:1.0;fill-rule: evenodd"/>
<path id="Pocket003_f0082"  d="M 242.9250000002686 3.2862601528904634e-14 L 242.9250000002686 -2.9999999999999503 M 242.9250000002686 -2.999999999999985 L 242.92499999998367 -2.999999999999985 L 242.92499999998438 3.4e-14 M 242.92499999998367 3.4311999999993355e-14 L 242.9250000002686 3.140800000000664e-14 Z " stroke="#191919" stroke-width="0.7 px" style="stroke-width:0.7;stroke-miterlimit:4;stroke-dasharray:none;stroke-linecap:square;fill:#727980;fill-opacity:1.0;fill-rule: evenodd"/>
<path id="Pocket003_f0083"  d="M 249.20000000001102 3.7e-14 L 242.9249999999906 3.7e-14 L 242.9249999999906 -2.9999999999999414 L 249.20000000001102 -2.999999999999941 L 249.20000000001102 3.7e-14 Z " stroke="#191919" stroke-width="0.7 px" style="stroke-width:0.7;stroke-miterlimit:4;stroke-dasharray:none;stroke-linecap:square;fill:#727980;fill-opacity:1.0;fill-rule: evenodd"/>
<path id="Pocket003_f0084"  d="M 249.20000000001102 3.6415315207705135e-14 L 249.20000000001102 -2.9999999999999414 M 249.20000000001102 -2.999999999999985 L 249.20000000028477 -2.999999999999985 L 249.20000000028477 3.5e-14 M 249.20000000028477 3.4518000000005227e-14 L 249.20000000001102 3.742199999999477e-14 Z " stroke="#191919" stroke-width="0.7 px" style="stroke-width:0.7;stroke-miterlimit:4;stroke-dasharray:none;stroke-linecap:square;fill:#727980;fill-opacity:1.0;fill-rule: evenodd"/>
<path id="Pocket003_f0085"  d="M 249.20000000028477 3.552713678800501e-14 L 249.20000000028477 -2.9999999999999445 L 242.92500000026115 -2.999999999999985 L 242.92500000026115 3.5e-14 L 249.20000000028477 3.515e-14 Z " stroke="#191919" stroke-width="0.7 px" style="stroke-width:0.7;stroke-miterlimit:4;stroke-dasharray:none;stroke-linecap:square;fill:#727980;fill-opacity:1.0;fill-rule: evenodd"/>
<path id="Pocket003_f0086"  d="M 242.92500000026115 3.552713678800501e-14 L 242.92500000026115 -2.9999999999999445 M 242.92500000026115 -2.999999999999985 L 242.9249999999906 -2.999999999999985 L 242.9249999999906 3.7e-14 M 242.9249999999906 3.742199999999477e-14 L 242.92500000026115 3.4518000000005227e-14 Z " stroke="#191919" stroke-width="0.7 px" style="stroke-width:0.7;stroke-miterlimit:4;stroke-dasharray:none;stroke-linecap:square;fill:#727980;fill-opacity:1.0;fill-rule: evenodd"/>
<path id="Pocket003_f0087"  d="M 222.0 -0.999999999999928 M 222.0 -0.9999999999999849 L 222.0 -0.9999999999999849 L 222.0 4.3e-14 M 222.0 4.308e-14 L 222.0 4.308e-14 Z " stroke="#191919" stroke-width="0.7 px" style="stroke-width:0.7;stroke-miterlimit:4;stroke-dasharray:none;stroke-linecap:square;fill:#727980;fill-opacity:1.0;fill-rule: evenodd"/>
<path id="Pocket003_f0088"  d="M 249.20000000000002 4e-14 L 242.92499999999998 4e-14 L 242.92499999999998 -2.9999999999999347 L 249.20000000000002 -2.999999999999935 L 249.20000000000002 4e-14 Z " stroke="#191919" stroke-width="0.7 px" style="stroke-width:0.7;stroke-miterlimit:4;stroke-dasharray:none;stroke-linecap:square;fill:#727980;fill-opacity:1.0;fill-rule: evenodd"/>
<path id="Pocket003_f0089"  d="M 249.20000000000002 4.04121180963557e-14 L 249.20000000000002 -2.9999999999999347 M 249.20000000000002 -2.999999999999985 L 249.20000000000005 -2.999999999999985 L 249.20000000000005 3.9e-14 M 249.20000000000002 3.806800000000001e-14 L 249.20000000000002 4.097199999999999e-14 Z " stroke="#191919" stroke-width="0.7 px" style="stroke-width:0.7;stroke-miterlimit:4;stroke-dasharray:none;stroke-linecap:square;fill:#727980;fill-opacity:1.0;fill-rule: evenodd"/>
<path id="Pocket003_f0090"  d="M 249.20000000000005 3.863576125695545e-14 L 249.20000000000005 -2.9999999999999374 L 242.92499999999998 -2.999999999999985 L 242.92499999999998 3.9e-14 L 249.20000000000005 3.868e-14 Z " stroke="#191919" stroke-width="0.7 px" style="stroke-width:0.7;stroke-miterlimit:4;stroke-dasharray:none;stroke-linecap:square;fill:#727980;fill-opacity:1.0;fill-rule: evenodd"/>
<path id="Pocket003_f0091"  d="M 242.92499999999998 3.863576125695545e-14 L 242.92499999999998 -2.9999999999999374 M 242.925 -2.999999999999985 L 242.92499999999998 -2.999999999999985 L 242.92499999999998 4e-14 M 242.92499999999998 4.097199999999999e-14 L 242.92499999999998 3.806800000000001e-14 Z " stroke="#191919" stroke-width="0.7 px" style="stroke-width:0.7;stroke-miterlimit:4;stroke-dasharray:none;stroke-linecap:square;fill:#727980;fill-opacity:1.0;fill-rule: evenodd"/>
<path id="Pocket003_f0092"  d="M 249.2 4.4e-14 L 242.925 4.4e-14 L 242.925 -2.9999999999999276 L 249.2 -2.999999999999928 L 249.2 4.4e-14 Z " stroke="#191919" stroke-width="0.7 px" style="stroke-width:0.7;stroke-miterlimit:4;stroke-dasharray:none;stroke-linecap:square;fill:#727980;fill-opacity:1.0;fill-rule: evenodd"/>
<path id="Pocket003_f0093"  d="M 249.2 4.3520742565306136e-14 L 249.2 -2.9999999999999276 M 249.2 -2.999999999999985 L 249.2 -2.999999999999985 L 249.2 4.2e-14 M 249.2 4.1177999999999995e-14 L 249.2 4.4082e-14 Z " stroke="#191919" stroke-width="0.7 px" style="stroke-width:0.7;stroke-miterlimit:4;stroke-dasharray:none;stroke-linecap:square;fill:#727980;fill-opacity:1.0;fill-rule: evenodd"/>
<path id="Pocket003_f0094"  d="M 249.2 4.1744385725905886e-14 L 249.2 -2.9999999999999303 L 242.925 -2.999999999999985 L 242.925 4.2e-14 L 249.2 4.222e-14 Z " stroke="#191919" stroke-width="0.7 px" style="stroke-width:0.7;stroke-miterlimit:4;stroke-dasharray:none;stroke-linecap:square;fill:#727980;fill-opacity:1.0;fill-rule: evenodd"/>
<path id="Pocket003_f0095"  d="M 242.925 4.1744385725905886e-14 L 242.925 -2.9999999999999303 M 242.925 -2.999999999999985 L 242.925 -2.999999999999985 L 242.925 4.4e-14 M 242.925 4.4082e-14 L 242.925 4.1177999999999995e-14 Z " stroke="#191919" stroke-width="0.7 px" style="stroke-width:0.7;stroke-miterlimit:4;stroke-dasharray:none;stroke-linecap:square;fill:#727980;fill-opacity:1.0;fill-rule: evenodd"/>
<path id="Pocket003_f0096"  d="M 47.57500000000002 -2.999999999999983 M 47.57500000000002 -2.999999999999985 L 47.57500000000002 -2.999999999999985 L 47.57500000000002 -0.9999999999999849 M 47.57500000000002 -0.9999999999999849 L 47.57500000000002 -0.9999999999999849 Z " stroke="#191919" stroke-width="0.7 px" style="stroke-width:0.7;stroke-miterlimit:4;stroke-dasharray:none;stroke-linecap:square;fill:#727980;fill-opacity:1.0;fill-rule: evenodd"/>
<path id="Pocket003_f0097"  d="M 106.07500000000002 -2.999999999999983 M 106.07500000000002 -2.999999999999985 L 106.07500000000002 -2.999999999999985 L 106.07500000000002 -0.9999999999999849 M 106.07500000000002 -0.9999999999999849 L 106.07500000000002 -0.9999999999999849 Z " stroke="#191919" stroke-width="0.7 px" style="stroke-width:0.7;stroke-miterlimit:4;stroke-dasharray:none;stroke-linecap:square;fill:#727980;fill-opacity:1.0;fill-rule: evenodd"/>
<path id="Pocket003_f0098"  d="M 47.57500000000002 -2.999999999999929 M 47.57500000000002 -2.999999999999985 L 47.57500000000002 -2.999999999999985 L 47.57500000000002 -0.9999999999999849 M 47.57500000000002 -0.9999999999999849 L 47.57500000000002 -0.9999999999999849 Z " stroke="#191919" stroke-width="0.7 px" style="stroke-width:0.7;stroke-miterlimit:4;stroke-dasharray:none;stroke-linecap:square;fill:#727980;fill-opacity:1.0;fill-rule: evenodd"/>
<path id="Pocket003_f0099"  d="M 106.07500000000002 -2.999999999999929 M 106.07500000000002 -2.999999999999985 L 106.07500000000002 -2.999999999999985 L 106.07500000000002 -0.9999999999999849 M 106.07500000000002 -0.9999999999999849 L 106.07500000000002 -0.9999999999999849 Z " stroke="#191919" stroke-width="0.7 px" style="stroke-width:0.7;stroke-miterlimit:4;stroke-dasharray:none;stroke-linecap:square;fill:#727980;fill-opacity:1.0;fill-rule: evenodd"/>
<path id="Pocket003_f0100"  d="M 164.57500000000002 -2.999999999999983 M 164.57500000000002 -2.999999999999985 L 164.57500000000002 -2.999999999999985 L 164.57500000000002 -0.9999999999999849 M 164.57500000000002 -0.9999999999999849 L 164.57500000000002 -0.9999999999999849 Z " stroke="#191919" stroke-width="0.7 px" style="stroke-width:0.7;stroke-miterlimit:4;stroke-dasharray:none;stroke-linecap:square;fill:#727980;fill-opacity:1.0;fill-rule: evenodd"/>
<path id="Pocket003_f0101"  d="M 191.07500000000002 -2.999999999999983 M 191.07500000000002 -2.999999999999985 L 191.07500000000002 -2.999999999999985 L 191.07500000000002 -0.9999999999999849 M 191.07500000000002 -0.9999999999999849 L 191.07500000000002 -0.9999999999999849 Z " stroke="#191919" stroke-width="0.7 px" style="stroke-width:0.7;stroke-miterlimit:4;stroke-dasharray:none;stroke-linecap:square;fill:#727980;fill-opacity:1.0;fill-rule: evenodd"/>
<path id="Pocket003_f0102"  d="M 164.57500000000002 -2.999999999999929 M 164.57500000000002 -2.999999999999985 L 164.57500000000002 -2.999999999999985 L 164.57500000000002 -0.9999999999999849 M 164.57500000000002 -0.9999999999999849 L 164.57500000000002 -0.9999999999999849 Z " stroke="#191919" stroke-width="0.7 px" style="stroke-width:0.7;stroke-miterlimit:4;stroke-dasharray:none;stroke-linecap:square;fill:#727980;fill-opacity:1.0;fill-rule: evenodd"/>
<path id="Pocket003_f0103"  d="M 191.07500000000002 -2.999999999999929 M 191.07500000000002 -2.999999999999985 L 191.07500000000002 -2.999999999999985 L 191.07500000000002 -0.9999999999999849 M 191.07500000000002 -0.9999999999999849 L 191.07500000000002 -0.9999999999999849 Z " stroke="#191919" stroke-width="0.7 px" style="stroke-width:0.7;stroke-miterlimit:4;stroke-dasharray:none;stroke-linecap:square;fill:#727980;fill-opacity:1.0;fill-rule: evenodd"/>
<path id="Pocket003_f0104"  d="M 215.5 -1.999999999999931 L 215.5 -2.999999999999938 L 215.5 -2.999999999999985 L 215.5 -1.999999999999985 L 215.5 -1.999999999999931 Z " stroke="#191919" stroke-width="0.7 px" style="stroke-width:0.7;stroke-miterlimit:4;stroke-dasharray:none;stroke-linecap:square;fill:#727980;fill-opacity:1.0;fill-rule: evenodd"/>
<path id="Pocket003_f0105"  d="M 215.5 -2.999999999999985 M 215.5 -2.999999999999985 L 223.5 -2.999999999999985 L 223.5 -1.999999999999985 M 223.5 -1.999999999999985 L 215.5 -1.999999999999985 L 215.5 -2.9999999999999285 Z " stroke="#191919" stroke-width="0.7 px" style="stroke-width:0.7;stroke-miterlimit:4;stroke-dasharray:none;stroke-linecap:square;fill:#727980;fill-opacity:1.0;fill-rule: evenodd"/>
<path id="Pocket003_f0106"  d="M 223.5 -1.999999999999985 L 223.5 -1.999999999999985 L 223.5 -2.9999999999999285 L 223.5 -2.999999999999938 L 223.5 -1.9999999999999312 Z " stroke="#191919" stroke-width="0.7 px" style="stroke-width:0.7;stroke-miterlimit:4;stroke-dasharray:none;stroke-linecap:square;fill:#727980;fill-opacity:1.0;fill-rule: evenodd"/>
<path id="Pocket003_f0107"  d="M 223.5 -1.999999999999985 L 223.5 -1.999999999999985 L 223.5 -2.999999999999988 L 223.5 -2.999999999999983 L 223.5 -1.999999999999985 Z " stroke="#191919" stroke-width="0.7 px" style="stroke-width:0.7;stroke-miterlimit:4;stroke-dasharray:none;stroke-linecap:square;fill:#727980;fill-opacity:1.0;fill-rule: evenodd"/>
<path id="Pocket003_f0108"  d="M 223.5 -2.999999999999985 M 223.5 -2.999999999999985 L 215.5 -2.999999999999985 L 215.5 -1.999999999999985 M 215.5 -1.999999999999985 L 223.5 -1.999999999999985 L 223.5 -2.999999999999983 Z " stroke="#191919" stroke-width="0.7 px" style="stroke-width:0.7;stroke-miterlimit:4;stroke-dasharray:none;stroke-linecap:square;fill:#727980;fill-opacity:1.0;fill-rule: evenodd"/>
<path id="Pocket003_f0109"  d="M 215.5 -1.999999999999981 L 215.5 -2.999999999999988 L 215.5 -2.999999999999983 L 215.5 -1.999999999999985 L 215.5 -1.999999999999985 Z " stroke="#191919" stroke-width="0.7 px" style="stroke-width:0.7;stroke-miterlimit:4;stroke-dasharray:none;stroke-linecap:square;fill:#727980;fill-opacity:1.0;fill-rule: evenodd"/>
<path id="Pocket003_f0110"  d="M 47.57500000000002 -0.9999999999999849 M 47.57500000000002 -0.9999999999999849 L 47.57500000000002 -0.9999999999999849 Z M 46.675000000000004 -0.99999999999997 M 46.675000000000004 -0.9999999999999697 L 46.675000000000004 -0.9999999999999697 Z " stroke="#191919" stroke-width="0.7 px" style="stroke-width:0.7;stroke-miterlimit:4;stroke-dasharray:none;stroke-linecap:square;fill:#727980;fill-opacity:1.0;fill-rule: evenodd"/>
<path id="Pocket003_f0111"  d="M 106.07500000000002 -0.9999999999999849 M 106.07500000000002 -0.9999999999999849 L 106.07500000000002 -0.9999999999999849 Z M 105.175 -0.99999999999997 M 105.175 -0.9999999999999697 L 105.175 -0.9999999999999697 Z " stroke="#191919" stroke-width="0.7 px" style="stroke-width:0.7;stroke-miterlimit:4;stroke-dasharray:none;stroke-linecap:square;fill:#727980;fill-opacity:1.0;fill-rule: evenodd"/>
<path id="Pocket003_f0114"  d="M 164.57500000000002 -0.9999999999999849 M 164.57500000000002 -0.9999999999999849 L 164.57500000000002 -0.9999999999999849 Z M 163.675 -0.99999999999997 M 163.675 -0.9999999999999697 L 163.675 -0.9999999999999697 Z " stroke="#191919" stroke-width="0.7 px" style="stroke-width:0.7;stroke-miterlimit:4;stroke-dasharray:none;stroke-linecap:square;fill:#727980;fill-opacity:1.0;fill-rule: evenodd"/>
<path id="Pocket003_f0115"  d="M 191.07500000000002 -0.9999999999999849 M 191.07500000000002 -0.9999999999999849 L 191.07500000000002 -0.9999999999999849 Z M 190.175 -0.99999999999997 M 190.175 -0.9999999999999697 L 190.175 -0.9999999999999697 Z " stroke="#191919" stroke-width="0.7 px" style="stroke-width:0.7;stroke-miterlimit:4;stroke-dasharray:none;stroke-linecap:square;fill:#727980;fill-opacity:1.0;fill-rule: evenodd"/>
<path id="Pocket003_f0116"  d="M 222.0 -1.99999999999997 M 222.0 -1.99999999999997 L 222.0 -1.99999999999997 L 222.0 -0.999999999999983 M 222.0 -0.9999999999999849 L 222.0 -0.9999999999999849 Z " stroke="#191919" stroke-width="0.7 px" style="stroke-width:0.7;stroke-miterlimit:4;stroke-dasharray:none;stroke-linecap:square;fill:#727980;fill-opacity:1.0;fill-rule: evenodd"/>
<path id="Pocket003_f0117"  d="M 215.5 -1.999999999999985 L 215.5 -1.999999999999985 L 223.5 -1.9999999999999691 L 223.5 -1.999999999999985 M 223.5 -1.999999999999985 L 215.5 -1.999999999999985 Z M 222.0 -1.99999999999997 M 222.0 -1.99999999999997 L 222.0 -1.99999999999997 Z " stroke="#191919" stroke-width="0.7 px" style="stroke-width:0.7;stroke-miterlimit:4;stroke-dasharray:none;stroke-linecap:square;fill:#727980;fill-opacity:1.0;fill-rule: evenodd"/>
<path id="Pocket003_f0118"  d="M 215.5 -1.999999999999985 L 215.5 -1.999999999999985 M 215.5 -1.999999999999985 L 223.5 -1.999999999999985 L 223.5 -1.999999999999931 L 215.5 -1.999999999999931 Z M 222.0 -1.999999999999942 M 222.0 -1.999999999999943 L 222.0 -1.999999999999943 Z " stroke="#191919" stroke-width="0.7 px" style="stroke-width:0.7;stroke-miterlimit:4;stroke-dasharray:none;stroke-linecap:square;fill:#727980;fill-opacity:1.0;fill-rule: evenodd"/>
<path id="Pocket003_f0121"  d="M 222.0 -1.999999999999942 M 222.0 -1.999999999999943 L 222.0 -1.999999999999943 L 222.0 -0.999999999999928 M 222.0 -0.9999999999999849 L 222.0 -0.9999999999999849 Z " stroke="#191919" stroke-width="0.7 px" style="stroke-width:0.7;stroke-miterlimit:4;stroke-dasharray:none;stroke-linecap:square;fill:#727980;fill-opacity:1.0;fill-rule: evenodd"/>
<title>b'DeviceSlotPocket'</title>
</g>
</svg>